<?xml version="1.0" encoding="iso-8859-1"?>
<!-- Generator: Adobe Illustrator 19.0.0, SVG Export Plug-In . SVG Version: 6.00 Build 0)  -->
<svg version="1.1" id="Capa_1" xmlns="http://www.w3.org/2000/svg" xmlns:xlink="http://www.w3.org/1999/xlink" x="0px" y="0px"
	 viewBox="0 0 480.11 480.11" style="enable-background:new 0 0 480.11 480.11;" xml:space="preserve">
<g>
	<g>
		<g>
			<path d="M428.401,269.765c-8.815-5.628-18.375-9.994-28.401-12.968V68.052c0-41.6-103.048-64-200-64s-200,22.4-200,64v336
				c0,41.6,103.048,64,200,64c36.195,0.201,72.329-3.013,107.92-9.6c52.105,33.27,121.314,18.001,154.584-34.103
				C495.774,372.244,480.506,303.034,428.401,269.765z M23.432,99.324c1.856,1.112,3.808,2.184,5.856,3.2l1.688,0.864
				c2.352,1.168,4.8,2.304,7.376,3.4l1.6,0.64c2.251,0.933,4.576,1.843,6.976,2.728c0.672,0.248,1.336,0.496,2.016,0.736
				c2.816,1.008,5.72,1.976,8.712,2.904c0.68,0.216,1.384,0.416,2.08,0.624c2.587,0.779,5.229,1.533,7.928,2.264
				c0.744,0.2,1.472,0.408,2.216,0.6c3.2,0.84,6.496,1.648,9.84,2.4l2.448,0.536c2.907,0.651,5.861,1.272,8.864,1.864l2.216,0.448
				c3.531,0.672,7.115,1.312,10.752,1.92l2.768,0.44c3.2,0.533,6.424,1.019,9.672,1.456l2.072,0.296
				c3.768,0.512,7.592,0.984,11.432,1.424l2.984,0.328c3.512,0.384,7.04,0.744,10.608,1.064l1.52,0.144
				c3.968,0.341,7.968,0.648,12,0.92l3.032,0.2c3.787,0.24,7.581,0.448,11.384,0.624l0.992,0.048c4.075,0.176,8.155,0.309,12.24,0.4
				l2.992,0.064c4.12,0.08,8.248,0.136,12.352,0.136s8.232-0.056,12.352-0.136l2.992-0.064c4.091-0.096,8.171-0.229,12.24-0.4
				l0.992-0.048c3.808-0.176,7.603-0.384,11.384-0.624l3.032-0.2c4.016-0.272,8.016-0.579,12-0.92l1.52-0.144
				c3.568-0.32,7.107-0.675,10.616-1.064l2.968-0.328c3.848-0.44,7.672-0.912,11.44-1.424l2.072-0.296
				c3.259-0.459,6.483-0.944,9.672-1.456l2.672-0.384c3.643-0.608,7.227-1.248,10.752-1.92l2.216-0.448
				c3.003-0.592,5.957-1.213,8.864-1.864l2.448-0.536c3.344-0.8,6.632-1.6,9.84-2.4c0.744-0.192,1.472-0.4,2.216-0.6
				c2.704-0.731,5.347-1.485,7.928-2.264c0.696-0.208,1.4-0.408,2.08-0.624c2.992-0.928,5.896-1.896,8.712-2.904
				c0.68-0.24,1.344-0.488,2.016-0.736c2.4-0.885,4.725-1.795,6.976-2.728l1.6-0.64c2.576-1.096,5.024-2.232,7.376-3.4l1.688-0.864
				c2.048-1.056,4-2.128,5.856-3.2c0.336-0.2,0.704-0.392,1.032-0.592c2.064-1.272,4-2.576,5.784-3.912
				c0.192-0.136,0.424-0.272,0.616-0.416v85.592c0,20-70,48-184,48s-184-28-184-48V94.404c0.192,0.144,0.424,0.28,0.616,0.424
				c1.784,1.328,3.72,2.64,5.784,3.904h0C22.728,98.932,23.096,99.124,23.432,99.324z M200,20.052c114,0,184,27.96,184,48
				c0,20.04-70,48-184,48s-184-27.96-184-48S86,20.052,200,20.052z M16,206.404c0.192,0.144,0.424,0.28,0.616,0.424
				c1.808,1.328,3.72,2.64,5.784,3.904c0.328,0.2,0.696,0.392,1.032,0.592c1.856,1.112,3.808,2.184,5.856,3.24l1.688,0.864
				c2.352,1.168,4.8,2.304,7.376,3.4l1.6,0.64c2.251,0.933,4.576,1.843,6.976,2.728c0.672,0.248,1.336,0.496,2.016,0.736
				c2.816,1.008,5.72,1.976,8.712,2.904c0.68,0.216,1.384,0.416,2.08,0.624c2.587,0.779,5.229,1.533,7.928,2.264
				c0.744,0.2,1.472,0.408,2.216,0.6c3.2,0.84,6.496,1.648,9.84,2.4l2.448,0.536c2.907,0.651,5.861,1.272,8.864,1.864l2.216,0.448
				c3.531,0.672,7.115,1.312,10.752,1.92l2.768,0.44c3.2,0.533,6.424,1.019,9.672,1.456l2.072,0.296
				c3.768,0.512,7.592,0.984,11.432,1.424l2.984,0.328c3.512,0.384,7.04,0.744,10.608,1.064l1.52,0.144
				c3.968,0.347,7.968,0.653,12,0.92l3.032,0.2c3.787,0.24,7.581,0.448,11.384,0.624l0.992,0.048c4.075,0.176,8.155,0.309,12.24,0.4
				l2.992,0.064c4.12,0.08,8.248,0.136,12.352,0.136s8.232-0.056,12.352-0.136l2.992-0.064c4.091-0.096,8.171-0.229,12.24-0.4
				l0.992-0.048c3.808-0.176,7.603-0.384,11.384-0.624l3.032-0.2c4.016-0.272,8.016-0.579,12-0.92l1.52-0.144
				c3.568-0.32,7.107-0.675,10.616-1.064l2.968-0.328c3.848-0.44,7.672-0.912,11.44-1.424l2.072-0.296
				c3.259-0.453,6.483-0.939,9.672-1.456l2.672-0.424c3.643-0.608,7.227-1.248,10.752-1.92l2.216-0.448
				c3.003-0.592,5.957-1.213,8.864-1.864l2.448-0.536c3.344-0.8,6.632-1.6,9.84-2.4c0.744-0.192,1.472-0.4,2.216-0.6
				c2.704-0.731,5.347-1.485,7.928-2.264c0.696-0.208,1.4-0.408,2.08-0.624c2.992-0.928,5.896-1.896,8.712-2.904
				c0.68-0.24,1.344-0.488,2.016-0.736c2.4-0.885,4.725-1.795,6.976-2.728l1.6-0.64c2.576-1.096,5.024-2.232,7.376-3.4l1.688-0.864
				c2.048-1.056,4-2.128,5.856-3.24c0.336-0.2,0.704-0.392,1.032-0.592c2.064-1.272,4-2.576,5.784-3.912
				c0.192-0.136,0.424-0.272,0.616-0.416v46.784c-0.64-0.088-1.296-0.128-1.944-0.208c-0.776-0.144-1.552-0.144-2.336-0.264l0,0
				c-3.892-0.431-7.804-0.658-11.72-0.68c-3.304,0-6.576,0.152-9.808,0.432c-1.12,0.104-2.208,0.296-3.312,0.432
				c-2.112,0.248-4.224,0.472-6.296,0.84c-1.296,0.224-2.552,0.552-3.832,0.8c-1.848,0.392-3.704,0.76-5.512,1.24
				c-1.344,0.352-2.648,0.8-4,1.208c-1.712,0.528-3.424,1.024-5.096,1.6c-1.344,0.48-2.656,1.048-4,1.6
				c-1.6,0.64-3.2,1.264-4.728,1.968c-1.336,0.616-2.624,1.296-3.936,1.96c-1.48,0.752-2.976,1.488-4.416,2.304
				c-1.296,0.728-2.544,1.52-3.808,2.296c-1.392,0.864-2.784,1.712-4.136,2.624s-2.4,1.744-3.648,2.632
				c-1.248,0.888-2.592,1.912-3.84,2.92c-1.248,1.008-2.32,1.952-3.456,2.952s-2.4,2.104-3.544,3.2
				c-1.144,1.096-2.176,2.16-3.24,3.264c-1.064,1.104-2.184,2.272-3.2,3.456c-1.016,1.184-2.008,2.344-2.984,3.544
				s-1.976,2.448-2.92,3.712c-0.944,1.264-1.824,2.512-2.704,3.8c-0.88,1.288-1.76,2.616-2.6,4c-0.84,1.384-1.6,2.664-2.4,4
				s-1.544,2.784-2.272,4.208c-0.728,1.424-1.392,2.8-2.048,4.232s-1.312,2.952-1.92,4.448c-0.608,1.496-1.16,2.912-1.688,4.4
				c-0.528,1.488-1.072,3.128-1.6,4.712c-0.528,1.584-0.904,2.992-1.304,4.504c-0.16,0.616-0.376,1.208-0.528,1.824
				c-5.8,0.552-11.688,0.976-17.6,1.36c-3.392,0.224-6.712,0.544-10.136,0.712c-10.4,0.512-20.936,0.8-31.552,0.8
				C86,340.052,16,312.092,16,292.052V206.404z M200,452.052L200,452.052c-114,0-184-27.96-184-48v-85.648
				c0.192,0.144,0.424,0.28,0.616,0.424c1.808,1.328,3.72,2.64,5.784,3.904c0.328,0.2,0.696,0.392,1.032,0.592
				c1.856,1.112,3.808,2.184,5.856,3.24l1.688,0.864c2.352,1.168,4.8,2.304,7.376,3.4l1.6,0.64c2.251,0.933,4.576,1.843,6.976,2.728
				c0.672,0.248,1.336,0.496,2.016,0.736c2.816,1.008,5.72,1.976,8.712,2.904c0.68,0.216,1.384,0.416,2.08,0.624
				c2.587,0.773,5.229,1.528,7.928,2.264c0.744,0.2,1.472,0.408,2.216,0.6c3.2,0.84,6.496,1.648,9.84,2.4l2.448,0.536
				c2.907,0.651,5.861,1.272,8.864,1.864l2.216,0.448c3.531,0.672,7.115,1.312,10.752,1.92l2.768,0.44
				c3.2,0.533,6.424,1.019,9.672,1.456l2.072,0.296c3.768,0.512,7.592,0.984,11.432,1.424l2.984,0.328
				c3.512,0.384,7.04,0.744,10.608,1.064l1.52,0.144c3.968,0.347,7.968,0.653,12,0.92l3.032,0.2
				c3.787,0.24,7.581,0.448,11.384,0.624l0.992,0.048c4.075,0.176,8.155,0.309,12.24,0.4l2.992,0.064
				c4.12,0.08,8.248,0.136,12.352,0.136c10.576,0,21.056-0.304,31.432-0.8c3.336-0.16,6.584-0.44,9.888-0.648
				c5.064-0.312,10.184-0.544,15.2-0.984c-0.379,3.483-0.568,6.965-0.568,10.448c0.025,4.265,0.292,8.525,0.8,12.76
				c0.16,1.352,0.424,2.68,0.624,4c0.44,2.856,0.936,5.696,1.6,8.488c0.352,1.528,0.8,3.024,1.184,4.52
				c0.72,2.608,1.528,5.168,2.4,7.712c0.52,1.472,1.048,2.936,1.6,4.384c1.056,2.608,2.24,5.152,3.488,7.672
				c0.616,1.24,1.176,2.504,1.832,3.72c1.813,3.355,3.8,6.612,5.952,9.76c0.2,0.304,0.36,0.624,0.568,0.92
				c2.395,3.418,4.98,6.697,7.744,9.824c0.88,1.008,1.856,1.936,2.768,2.912c1.44,1.52,2.808,3.096,4.328,4.544
				C260.815,449.895,230.427,452.163,200,452.052z M461.412,386.176c-10.254,43.298-48.917,73.875-93.412,73.876h0
				c-53.019,0-96-42.981-96-96s42.981-96,96-96c3.743-0.001,7.482,0.215,11.2,0.648c3.675,0.429,7.321,1.075,10.92,1.936
				C441.712,282.855,473.631,334.584,461.412,386.176z"/>
			<path d="M440,356.052h-64v-64c0-4.418-3.582-8-8-8s-8,3.582-8,8v64h-64c-4.418,0-8,3.582-8,8s3.582,8,8,8h64v64
				c0,4.418,3.582,8,8,8s8-3.582,8-8v-64h64c4.418,0,8-3.582,8-8S444.418,356.052,440,356.052z"/>
		</g>
	</g>
</g>
<g>
</g>
<g>
</g>
<g>
</g>
<g>
</g>
<g>
</g>
<g>
</g>
<g>
</g>
<g>
</g>
<g>
</g>
<g>
</g>
<g>
</g>
<g>
</g>
<g>
</g>
<g>
</g>
<g>
</g>
</svg>
